<svg width="173" height="25" viewBox="0 0 173 25" fill="none" xmlns="http://www.w3.org/2000/svg">
<path d="M22.6 9.4523C22.5353 9.26166 22.4161 9.09414 22.2573 8.97044C22.0985 8.84673 21.9069 8.77225 21.7062 8.75619L15.8355 8.2897L13.2951 2.66617C13.2142 2.48505 13.0826 2.33121 12.9162 2.22323C12.7498 2.11524 12.5557 2.05773 12.3573 2.05762C12.1589 2.05751 11.9648 2.11481 11.7983 2.22262C11.6317 2.33042 11.5 2.48411 11.4189 2.66514L8.87844 8.2897L3.00776 8.75619C2.81052 8.77181 2.62195 8.84393 2.46462 8.96392C2.30729 9.08391 2.18786 9.24668 2.12062 9.43277C2.05337 9.61886 2.04117 9.82038 2.08545 10.0132C2.12974 10.2061 2.22865 10.3821 2.37034 10.5202L6.70873 14.7494L5.17438 21.3934C5.12779 21.5945 5.14273 21.805 5.21724 21.9975C5.29176 22.19 5.42242 22.3557 5.59226 22.4731C5.76211 22.5904 5.9633 22.654 6.16973 22.6556C6.37617 22.6571 6.5783 22.5966 6.74992 22.4819L12.357 18.7438L17.964 22.4819C18.1394 22.5983 18.3463 22.6583 18.5568 22.6537C18.7673 22.6491 18.9713 22.5801 19.1415 22.4561C19.3116 22.332 19.4396 22.1589 19.5084 21.9599C19.5772 21.7609 19.5834 21.5456 19.5262 21.343L17.6427 14.7525L22.3137 10.549C22.6196 10.273 22.7318 9.84258 22.6 9.4523Z" fill="#F2C94C"/>
<path d="M59.6715 9.4523C59.6068 9.26166 59.4877 9.09414 59.3288 8.97044C59.17 8.84673 58.9784 8.77225 58.7777 8.75619L52.907 8.2897L50.3666 2.66617C50.2857 2.48505 50.1541 2.33121 49.9877 2.22323C49.8213 2.11524 49.6272 2.05773 49.4288 2.05762C49.2305 2.05751 49.0363 2.11481 48.8698 2.22262C48.7033 2.33042 48.5715 2.48411 48.4904 2.66514L45.95 8.2897L40.0793 8.75619C39.8821 8.77181 39.6935 8.84393 39.5362 8.96392C39.3788 9.08391 39.2594 9.24668 39.1922 9.43277C39.1249 9.61886 39.1127 9.82038 39.157 10.0132C39.2013 10.2061 39.3002 10.3821 39.4419 10.5202L43.7803 14.7494L42.2459 21.3934C42.1993 21.5945 42.2143 21.805 42.2888 21.9975C42.3633 22.19 42.4939 22.3557 42.6638 22.4731C42.8336 22.5904 43.0348 22.654 43.2413 22.6556C43.4477 22.6571 43.6498 22.5966 43.8215 22.4819L49.4285 18.7438L55.0356 22.4819C55.211 22.5983 55.4178 22.6583 55.6283 22.6537C55.8388 22.6491 56.0429 22.5801 56.213 22.4561C56.3831 22.332 56.5112 22.1589 56.58 21.9599C56.6487 21.7609 56.6549 21.5456 56.5977 21.343L54.7143 14.7525L59.3853 10.549C59.6911 10.273 59.8034 9.84258 59.6715 9.4523Z" fill="#F2C94C"/>
<path d="M96.7428 9.4523C96.6781 9.26166 96.559 9.09414 96.4001 8.97044C96.2413 8.84673 96.0497 8.77225 95.849 8.75619L89.9783 8.2897L87.4379 2.66617C87.357 2.48505 87.2254 2.33121 87.059 2.22323C86.8926 2.11524 86.6985 2.05773 86.5001 2.05762C86.3018 2.05751 86.1076 2.11481 85.9411 2.22262C85.7745 2.33042 85.6428 2.48411 85.5617 2.66514L83.0213 8.2897L77.1506 8.75619C76.9533 8.77181 76.7648 8.84393 76.6074 8.96392C76.4501 9.08391 76.3307 9.24668 76.2634 9.43277C76.1962 9.61886 76.184 9.82038 76.2283 10.0132C76.2726 10.2061 76.3715 10.3821 76.5132 10.5202L80.8515 14.7494L79.3172 21.3934C79.2706 21.5945 79.2855 21.805 79.3601 21.9975C79.4346 22.19 79.5652 22.3557 79.7351 22.4731C79.9049 22.5904 80.1061 22.654 80.3126 22.6556C80.519 22.6571 80.7211 22.5966 80.8927 22.4819L86.4998 18.7438L92.1068 22.4819C92.2823 22.5983 92.4891 22.6583 92.6996 22.6537C92.9101 22.6491 93.1141 22.5801 93.2843 22.4561C93.4544 22.332 93.5825 22.1589 93.6512 21.9599C93.72 21.7609 93.7262 21.5456 93.669 21.343L91.7856 14.7525L96.4566 10.549C96.7624 10.273 96.8746 9.84258 96.7428 9.4523Z" fill="#F2C94C"/>
<path d="M133.814 9.4523C133.749 9.26166 133.63 9.09414 133.471 8.97044C133.313 8.84673 133.121 8.77225 132.92 8.75619L127.05 8.2897L124.509 2.66617C124.428 2.48505 124.297 2.33121 124.13 2.22323C123.964 2.11524 123.77 2.05773 123.571 2.05762C123.373 2.05751 123.179 2.11481 123.012 2.22262C122.846 2.33042 122.714 2.48411 122.633 2.66514L120.093 8.2897L114.222 8.75619C114.025 8.77181 113.836 8.84393 113.679 8.96392C113.521 9.08391 113.402 9.24668 113.335 9.43277C113.267 9.61886 113.255 9.82038 113.3 10.0132C113.344 10.2061 113.443 10.3821 113.584 10.5202L117.923 14.7494L116.388 21.3934C116.342 21.5945 116.357 21.805 116.431 21.9975C116.506 22.19 116.637 22.3557 116.806 22.4731C116.976 22.5904 117.177 22.654 117.384 22.6556C117.59 22.6571 117.792 22.5966 117.964 22.4819L123.571 18.7438L129.178 22.4819C129.354 22.5983 129.56 22.6583 129.771 22.6537C129.981 22.6491 130.185 22.5801 130.356 22.4561C130.526 22.332 130.654 22.1589 130.723 21.9599C130.791 21.7609 130.798 21.5456 130.74 21.343L128.857 14.7525L133.528 10.549C133.834 10.273 133.946 9.84258 133.814 9.4523Z" fill="#F2C94C"/>
<path d="M154.996 14.7494L153.462 21.3934C153.414 21.5946 153.429 21.8054 153.503 21.9984C153.577 22.1913 153.708 22.3574 153.878 22.475C154.048 22.5925 154.249 22.6561 154.456 22.6573C154.663 22.6585 154.865 22.5974 155.036 22.4819L160.643 18.7438L166.25 22.4819C166.426 22.5983 166.633 22.6583 166.843 22.6537C167.054 22.649 167.258 22.5801 167.428 22.456C167.598 22.332 167.726 22.1588 167.795 21.9598C167.864 21.7608 167.87 21.5456 167.813 21.3429L165.929 14.7525L170.6 10.549C170.75 10.4143 170.857 10.2387 170.907 10.0439C170.958 9.84911 170.951 9.64369 170.886 9.45304C170.822 9.26239 170.703 9.09487 170.544 8.9712C170.385 8.84752 170.193 8.77312 169.993 8.75719L164.122 8.28968L161.581 2.66615C161.5 2.48507 161.369 2.3313 161.202 2.22341C161.036 2.11552 160.842 2.05811 160.643 2.05811C160.445 2.05811 160.251 2.11552 160.084 2.22341C159.918 2.3313 159.786 2.48507 159.705 2.66615L157.165 8.28968L151.294 8.75616C151.097 8.77179 150.908 8.84391 150.751 8.96389C150.594 9.08388 150.474 9.24666 150.407 9.43274C150.34 9.61883 150.328 9.82035 150.372 10.0132C150.416 10.206 150.515 10.382 150.657 10.5201L154.996 14.7494ZM157.934 10.2946C158.118 10.2801 158.294 10.2165 158.445 10.1103C158.596 10.0041 158.715 9.85937 158.791 9.69118L160.643 5.5917L162.496 9.69118C162.571 9.85937 162.691 10.0041 162.842 10.1103C162.992 10.2165 163.169 10.2801 163.353 10.2946L167.443 10.619L164.075 13.6506C163.782 13.9142 163.666 14.32 163.773 14.6989L165.063 19.2144L161.216 16.6493C161.047 16.5359 160.848 16.4754 160.645 16.4754C160.442 16.4754 160.243 16.5359 160.074 16.6493L156.054 19.3298L157.135 14.6485C157.175 14.4763 157.169 14.2968 157.12 14.1273C157.07 13.9578 156.977 13.8039 156.851 13.6805L153.722 10.6303L157.934 10.2946Z" fill="#F2C94C"/>
</svg>
